# xmcd
#
# Track frame offsets:
# 150
# 17925
# 39675
# 55500
# 71625
# 97050
# 121650
# 153000
# 170025
# 187050
# 207975
#
# Disc length: 3012 seconds
#
#
# Revision: 4
# Processed by: cddbd v1.5.2PL0 Copyright (c) Steve Scherf et al.
# Submitted via: KELLER's_Musik_Katalog 2006 
#
DISCID=960bc20b
DTITLE=Various Artist - Where Blues Meets Rock IV
DYEAR=2000
DGENRE=Bluesrock
TTITLE0=OMAR and THE HOWLERS - Radio Man
TTITLE1=DAVE HOLE - Holding Pattern
TTITLE2=MICHAEL KATON - She's All Mine
TTITLE3=JAY HOOKS - Where You Going?
TTITLE4=CARL VERHEYEN - Revival Downs
TTITLE5=TONY GALLA - ASAP
TTITLE6=BOBBY MACK - Pourin' Rain
TTITLE7=LANCE KELTNER - Let's Go Bowling And Drink Some Beer
TTITLE8=WALTER TROUT and THE FREE RADICALS - Obstacles In My Way (Live)
TTITLE9=ROB TOGNONI - Dark Angel (Live)
TTITLE10=OMAR and THE HOWLERS - Don't You Know (Live)
EXTD=Label: PROVOGUE\nBestellnummer: PRD 71232 - 329 7123 2\nFirma: rough trade Distribution GmbH\n\n\n Für freedb bereitgestelt von:\n    KELLER'S Musik-Katalog 2007 2007
EXTT0=
EXTT1=
EXTT2=
EXTT3=
EXTT4=
EXTT5=
EXTT6=
EXTT7=
EXTT8=
EXTT9=
EXTT10=
PLAYORDER=
